<?xml version="1.0" encoding="UTF-8"?>
<svg version="1.1" xmlns="http://www.w3.org/2000/svg" width="1024" height="1024">
<path d="M0 0 C337.92 0 675.84 0 1024 0 C1024 337.92 1024 675.84 1024 1024 C686.08 1024 348.16 1024 0 1024 C0 686.08 0 348.16 0 0 Z " fill="#5A54FF" transform="translate(0,0)"/>
<path d="M0 0 C1.04801788 0.00027191 2.09603577 0.00054382 3.17581177 0.00082397 C18.63966684 0.01929543 33.87556766 0.41736265 49.25 2.1875 C51.19523058 2.38492344 53.1405454 2.58151833 55.0859375 2.77734375 C79.81515203 5.41496457 103.70310969 11.2833096 127.25 19.1875 C128.55203369 19.6215918 128.55203369 19.6215918 129.88037109 20.06445312 C143.65520364 24.72119971 143.65520364 24.72119971 146.25 29.1875 C146.62719816 32.12267447 146.62719816 32.12267447 146.63031673 35.61873627 C146.63497665 36.26542363 146.63963657 36.912111 146.6444377 37.57839495 C146.65642836 39.75441297 146.64697713 41.92981127 146.63768005 44.10583496 C146.6418512 45.67798923 146.64732751 47.25014049 146.65399987 48.82228613 C146.66850188 53.14958558 146.66419499 57.47669534 146.65683305 61.80400538 C146.65211544 66.46801356 146.66459867 71.13197985 146.67485046 75.79597473 C146.69207104 84.935558 146.69287179 94.07507263 146.68763756 103.21466792 C146.68360096 110.64065221 146.68503333 118.06661617 146.69038582 125.49259949 C146.69113424 126.54831527 146.69188266 127.60403105 146.69265376 128.69173822 C146.69418519 130.83620616 146.69572354 132.9806741 146.69726873 135.12514204 C146.71100537 155.24779446 146.70554774 175.37040803 146.69408352 195.49305958 C146.68414815 213.91650877 146.69709502 232.33985759 146.72101771 250.7632913 C146.74537882 269.66629515 146.75502406 288.5692522 146.74836498 307.47227144 C146.74486633 318.09060873 146.74714739 328.70886876 146.76461601 339.32719421 C146.77930061 348.36558683 146.78002254 357.4038478 146.7625451 366.44223773 C146.75400207 371.05640071 146.75196566 375.67032813 146.76719666 380.28447914 C146.78095584 384.50488176 146.77639477 388.72484509 146.75695742 392.94522172 C146.75316998 394.47544451 146.7561976 396.00570177 146.76656907 397.5358941 C146.77963145 399.60988682 146.76825517 401.68233892 146.75057125 403.75626373 C146.75046391 404.90996413 146.75035658 406.06366452 146.75024599 407.25232553 C146.13784185 410.84558373 145.14283557 412.0276694 142.25 414.1875 C134.75036051 415.31244592 128.24350592 412.4333743 121.25 409.9375 C111.30874969 406.51231875 101.52425274 403.44644406 91.25 401.1875 C89.38794658 400.7633467 87.52597358 400.3388402 85.6640625 399.9140625 C75.25158331 397.5646105 64.88121514 395.26953079 54.25 394.1875 C53.45013672 394.09871582 52.65027344 394.00993164 51.82617188 393.91845703 C14.71885437 389.96363329 -23.77316701 390.32211767 -60.70507812 395.61865234 C-64.88526761 396.21591298 -69.07358482 396.73198721 -73.265625 397.23828125 C-84.67616178 398.63315484 -96.00311211 400.16035622 -107.29589844 402.33764648 C-112.36099356 403.31243702 -117.43804239 404.21791934 -122.515625 405.125 C-124.41408967 405.46599461 -126.31252692 405.8071419 -128.2109375 406.1484375 C-131.11520568 406.67032122 -134.01966433 407.19099953 -136.92480469 407.70800781 C-150.98733552 410.2116505 -150.98733552 410.2116505 -164.88671875 413.48144531 C-170.23010348 414.79906713 -175.65444246 415.71632682 -181.06893921 416.69137573 C-190.90620567 418.46702766 -200.7100552 420.31158525 -210.4375 422.625 C-253.01743979 432.60133265 -297.11366512 440.17798938 -340.75 443.1875 C-341.99467041 443.2795874 -343.23934082 443.3716748 -344.52172852 443.46655273 C-356.82073776 444.32413783 -369.11271996 444.38990815 -381.4375 444.375 C-382.51715027 444.37373108 -383.59680054 444.37246216 -384.70916748 444.37115479 C-413.07663968 444.30774681 -440.01997705 442.3172124 -467.75 436.1875 C-468.77013184 435.96658691 -469.79026367 435.74567383 -470.84130859 435.51806641 C-518.84524742 425.04462887 -518.84524742 425.04462887 -524.75 416.1875 C-525.00415033 413.3776747 -525.00415033 413.3776747 -525.01006222 409.88210487 C-525.01386789 409.23687095 -525.01767356 408.59163702 -525.02159455 407.92685056 C-525.0319574 405.74986977 -525.02799564 403.57314747 -525.02415466 401.39614868 C-525.02860453 399.82557144 -525.03391774 398.25499644 -525.04002339 396.68442476 C-525.05424395 392.35683905 -525.05586591 388.02932502 -525.05542648 383.70171928 C-525.05707111 379.03904093 -525.0701309 374.37639242 -525.08161926 369.71372986 C-525.10449515 359.51348431 -525.11239252 349.31325953 -525.11744571 339.11299181 C-525.12069944 332.7473968 -525.12721992 326.38180786 -525.1344471 320.01621628 C-525.15401568 302.40130368 -525.17041862 284.78639672 -525.17332363 267.17147255 C-525.1735112 266.04367584 -525.17369877 264.91587912 -525.17389202 263.75390675 C-525.17425828 261.46746437 -525.17462198 259.18102199 -525.17498314 256.8945796 C-525.17516595 255.75954412 -525.17534876 254.62450863 -525.17553711 253.45507812 C-525.17571766 252.31866195 -525.17589821 251.18224578 -525.17608423 250.01139276 C-525.17962749 231.58854174 -525.2066582 213.1658075 -525.244035 194.74299701 C-525.28207772 175.84115418 -525.30148081 156.93936936 -525.30178314 138.03748739 C-525.30236859 127.4196336 -525.31091689 116.80191913 -525.33978081 106.1841011 C-525.36424068 97.14460434 -525.37161413 88.10529771 -525.35653328 79.06577684 C-525.34934244 74.45144026 -525.35031494 69.83747951 -525.37294388 65.22318459 C-525.39345015 61.00138632 -525.39101254 56.78025483 -525.37006903 52.55846445 C-525.36655804 51.02886066 -525.37155189 49.49920957 -525.38577347 47.96966787 C-525.40383502 45.89382295 -525.3912216 43.82034887 -525.37082577 41.74457741 C-525.37164022 40.59071466 -525.37245468 39.43685191 -525.37329382 38.24802363 C-524.55293063 34.21984168 -522.94523337 32.69287148 -519.75 30.1875 C-514.22421833 30.18091385 -509.29477567 32.3225072 -504.1875 34.25 C-485.72047953 40.90846248 -466.71873032 45.77686053 -447.375 49.0625 C-446.26205566 49.25344238 -445.14911133 49.44438477 -444.00244141 49.64111328 C-424.14439893 52.78589732 -404.13802968 53.57501652 -384.0625 53.5 C-382.40466995 53.49577026 -382.40466995 53.49577026 -380.71334839 53.49145508 C-330.00066439 53.29885054 -280.43204261 44.84144587 -230.75 35.1875 C-229.6770166 34.98092773 -228.6040332 34.77435547 -227.49853516 34.56152344 C-216.40554431 32.41899779 -205.34821151 30.10630124 -194.2890625 27.796875 C-193.24779205 27.57953201 -192.20652161 27.36218903 -191.13369751 27.13825989 C-185.88545196 26.04241709 -180.63775653 24.94406584 -175.39111328 23.84057617 C-165.08215674 21.67756103 -154.76615796 19.58275602 -144.41314697 17.64073181 C-139.35444734 16.69060141 -134.30726711 15.69752282 -129.26495361 14.66404724 C-117.97317631 12.35542502 -106.63938124 10.44627075 -95.25 8.6875 C-93.80729736 8.46305206 -93.80729736 8.46305206 -92.33544922 8.23406982 C-73.5325673 5.32157434 -54.69196184 2.98064863 -35.75 1.1875 C-34.73389648 1.0836499 -33.71779297 0.9797998 -32.67089844 0.87280273 C-21.80557047 -0.12404069 -10.90112888 -0.01058788 0 0 Z " fill="#5A54FF" transform="translate(701.75,297.8125)"/>
<path d="M0 0 C1.04801788 0.00027191 2.09603577 0.00054382 3.17581177 0.00082397 C18.63966684 0.01929543 33.87556766 0.41736265 49.25 2.1875 C51.19523058 2.38492344 53.1405454 2.58151833 55.0859375 2.77734375 C79.81515203 5.41496457 103.70310969 11.2833096 127.25 19.1875 C128.55203369 19.6215918 128.55203369 19.6215918 129.88037109 20.06445312 C143.65520364 24.72119971 143.65520364 24.72119971 146.25 29.1875 C146.62719816 32.12267447 146.62719816 32.12267447 146.63031673 35.61873627 C146.63497665 36.26542363 146.63963657 36.912111 146.6444377 37.57839495 C146.65642836 39.75441297 146.64697713 41.92981127 146.63768005 44.10583496 C146.6418512 45.67798923 146.64732751 47.25014049 146.65399987 48.82228613 C146.66850188 53.14958558 146.66419499 57.47669534 146.65683305 61.80400538 C146.65211544 66.46801356 146.66459867 71.13197985 146.67485046 75.79597473 C146.69207104 84.935558 146.69287179 94.07507263 146.68763756 103.21466792 C146.68360096 110.64065221 146.68503333 118.06661617 146.69038582 125.49259949 C146.69113424 126.54831527 146.69188266 127.60403105 146.69265376 128.69173822 C146.69418519 130.83620616 146.69572354 132.9806741 146.69726873 135.12514204 C146.71100537 155.24779446 146.70554774 175.37040803 146.69408352 195.49305958 C146.68414815 213.91650877 146.69709502 232.33985759 146.72101771 250.7632913 C146.74537882 269.66629515 146.75502406 288.5692522 146.74836498 307.47227144 C146.74486633 318.09060873 146.74714739 328.70886876 146.76461601 339.32719421 C146.77930061 348.36558683 146.78002254 357.4038478 146.7625451 366.44223773 C146.75400207 371.05640071 146.75196566 375.67032813 146.76719666 380.28447914 C146.78095584 384.50488176 146.77639477 388.72484509 146.75695742 392.94522172 C146.75316998 394.47544451 146.7561976 396.00570177 146.76656907 397.5358941 C146.77963145 399.60988682 146.76825517 401.68233892 146.75057125 403.75626373 C146.75046391 404.90996413 146.75035658 406.06366452 146.75024599 407.25232553 C146.13784185 410.84558373 145.14283557 412.0276694 142.25 414.1875 C134.75036051 415.31244592 128.24350592 412.4333743 121.25 409.9375 C111.30874969 406.51231875 101.52425274 403.44644406 91.25 401.1875 C89.38794658 400.7633467 87.52597358 400.3388402 85.6640625 399.9140625 C75.25158331 397.5646105 64.88121514 395.26953079 54.25 394.1875 C53.45013672 394.09871582 52.65027344 394.00993164 51.82617188 393.91845703 C14.71885437 389.96363329 -23.77316701 390.32211767 -60.70507812 395.61865234 C-64.88526761 396.21591298 -69.07358482 396.73198721 -73.265625 397.23828125 C-84.67616178 398.63315484 -96.00311211 400.16035622 -107.29589844 402.33764648 C-112.36099356 403.31243702 -117.43804239 404.21791934 -122.515625 405.125 C-124.41408967 405.46599461 -126.31252692 405.8071419 -128.2109375 406.1484375 C-131.11520568 406.67032122 -134.01966433 407.19099953 -136.92480469 407.70800781 C-150.98733552 410.2116505 -150.98733552 410.2116505 -164.88671875 413.48144531 C-170.23010348 414.79906713 -175.65444246 415.71632682 -181.06893921 416.69137573 C-190.90620567 418.46702766 -200.7100552 420.31158525 -210.4375 422.625 C-253.01743979 432.60133265 -297.11366512 440.17798938 -340.75 443.1875 C-341.99467041 443.2795874 -343.23934082 443.3716748 -344.52172852 443.46655273 C-356.82073776 444.32413783 -369.11271996 444.38990815 -381.4375 444.375 C-382.51715027 444.37373108 -383.59680054 444.37246216 -384.70916748 444.37115479 C-413.07663968 444.30774681 -440.01997705 442.3172124 -467.75 436.1875 C-468.77013184 435.96658691 -469.79026367 435.74567383 -470.84130859 435.51806641 C-518.84524742 425.04462887 -518.84524742 425.04462887 -524.75 416.1875 C-525.00415033 413.3776747 -525.00415033 413.3776747 -525.01006222 409.88210487 C-525.01386789 409.23687095 -525.01767356 408.59163702 -525.02159455 407.92685056 C-525.0319574 405.74986977 -525.02799564 403.57314747 -525.02415466 401.39614868 C-525.02860453 399.82557144 -525.03391774 398.25499644 -525.04002339 396.68442476 C-525.05424395 392.35683905 -525.05586591 388.02932502 -525.05542648 383.70171928 C-525.05707111 379.03904093 -525.0701309 374.37639242 -525.08161926 369.71372986 C-525.10449515 359.51348431 -525.11239252 349.31325953 -525.11744571 339.11299181 C-525.12069944 332.7473968 -525.12721992 326.38180786 -525.1344471 320.01621628 C-525.15401568 302.40130368 -525.17041862 284.78639672 -525.17332363 267.17147255 C-525.1735112 266.04367584 -525.17369877 264.91587912 -525.17389202 263.75390675 C-525.17425828 261.46746437 -525.17462198 259.18102199 -525.17498314 256.8945796 C-525.17516595 255.75954412 -525.17534876 254.62450863 -525.17553711 253.45507812 C-525.17571766 252.31866195 -525.17589821 251.18224578 -525.17608423 250.01139276 C-525.17962749 231.58854174 -525.2066582 213.1658075 -525.244035 194.74299701 C-525.28207772 175.84115418 -525.30148081 156.93936936 -525.30178314 138.03748739 C-525.30236859 127.4196336 -525.31091689 116.80191913 -525.33978081 106.1841011 C-525.36424068 97.14460434 -525.37161413 88.10529771 -525.35653328 79.06577684 C-525.34934244 74.45144026 -525.35031494 69.83747951 -525.37294388 65.22318459 C-525.39345015 61.00138632 -525.39101254 56.78025483 -525.37006903 52.55846445 C-525.36655804 51.02886066 -525.37155189 49.49920957 -525.38577347 47.96966787 C-525.40383502 45.89382295 -525.3912216 43.82034887 -525.37082577 41.74457741 C-525.37164022 40.59071466 -525.37245468 39.43685191 -525.37329382 38.24802363 C-524.55293063 34.21984168 -522.94523337 32.69287148 -519.75 30.1875 C-514.22421833 30.18091385 -509.29477567 32.3225072 -504.1875 34.25 C-485.72047953 40.90846248 -466.71873032 45.77686053 -447.375 49.0625 C-446.26205566 49.25344238 -445.14911133 49.44438477 -444.00244141 49.64111328 C-424.14439893 52.78589732 -404.13802968 53.57501652 -384.0625 53.5 C-382.40466995 53.49577026 -382.40466995 53.49577026 -380.71334839 53.49145508 C-330.00066439 53.29885054 -280.43204261 44.84144587 -230.75 35.1875 C-229.6770166 34.98092773 -228.6040332 34.77435547 -227.49853516 34.56152344 C-216.40554431 32.41899779 -205.34821151 30.10630124 -194.2890625 27.796875 C-193.24779205 27.57953201 -192.20652161 27.36218903 -191.13369751 27.13825989 C-185.88545196 26.04241709 -180.63775653 24.94406584 -175.39111328 23.84057617 C-165.08215674 21.67756103 -154.76615796 19.58275602 -144.41314697 17.64073181 C-139.35444734 16.69060141 -134.30726711 15.69752282 -129.26495361 14.66404724 C-117.97317631 12.35542502 -106.63938124 10.44627075 -95.25 8.6875 C-93.80729736 8.46305206 -93.80729736 8.46305206 -92.33544922 8.23406982 C-73.5325673 5.32157434 -54.69196184 2.98064863 -35.75 1.1875 C-34.73389648 1.0836499 -33.71779297 0.9797998 -32.67089844 0.87280273 C-21.80557047 -0.12404069 -10.90112888 -0.01058788 0 0 Z M-80.98876953 63.30587769 C-85.62227279 64.02923423 -90.25880165 64.64359713 -94.91455078 65.20117188 C-110.70312941 67.11873689 -126.24712914 70.58970713 -141.81629944 73.77949524 C-148.09517752 75.06307395 -154.3853738 76.27328113 -160.6875 77.4375 C-167.16674096 78.64354206 -173.56283305 80.05570723 -179.96411133 81.62036133 C-187.51730191 83.43344284 -195.1471043 84.82902882 -202.77905273 86.26586914 C-209.71636697 87.5802185 -216.61183194 89.01305697 -223.5 90.5625 C-246.4185936 95.65986521 -269.62609277 99.95734765 -292.93066406 102.82519531 C-296.19571351 103.24477735 -299.45272911 103.7099485 -302.7109375 104.1796875 C-317.69281135 106.33333803 -332.64176374 108.20898427 -347.75 109.1875 C-348.39977814 109.23053253 -349.04955627 109.27356506 -349.71902466 109.31790161 C-362.80025943 110.16344686 -375.83241928 110.3103501 -388.9375 110.25 C-390.87434778 110.24496585 -392.81119685 110.24040639 -394.74804688 110.23632812 C-399.41539756 110.2254951 -404.08268372 110.20834053 -408.75 110.1875 C-408.9353833 110.98196533 -409.1207666 111.77643066 -409.31176758 112.5949707 C-412.79440157 127.08957194 -418.55456194 138.65155279 -431.25 147.0625 C-441.05705676 152.86366882 -447.52564197 153.5575856 -459.75 155.1875 C-459.75 212.6075 -459.75 270.0275 -459.75 329.1875 C-452.325 332.6525 -452.325 332.6525 -444.75 336.1875 C-423.63744071 349.02062427 -414.3518393 365.01499256 -407.75 388.1875 C-360.92730836 389.04012935 -315.86058011 386.05720241 -269.8069458 377.56640625 C-267.76881314 377.19096553 -265.72998177 376.81956587 -263.69091797 376.44921875 C-255.0737402 374.88081659 -246.46897283 373.25060307 -237.86828613 371.59436035 C-235.65057091 371.1684026 -233.43229764 370.74545846 -231.21386719 370.32324219 C-208.50176951 366.00486193 -208.50176951 366.00486193 -185.92602539 361.03320312 C-176.66263921 358.87666632 -167.32184903 357.12626195 -157.98046875 355.34741211 C-151.11399675 354.03874788 -144.26591585 352.68200338 -137.4375 351.1875 C-111.28518202 345.58764671 -84.92271875 341.75582421 -58.36328125 338.72363281 C-54.29946389 338.25751614 -50.24386997 337.73817827 -46.1875 337.2109375 C-20.82406156 334.12441812 4.74679009 334.90202838 30.25 335.1875 C30.5291626 333.99471436 30.5291626 333.99471436 30.81396484 332.77783203 C34.29845783 318.2998849 40.27842983 305.89879656 53.3125 297.75 C54.94217345 296.86539132 56.58713957 296.00802621 58.25 295.1875 C59.18199219 294.71376953 59.18199219 294.71376953 60.1328125 294.23046875 C66.94119094 291.23890853 73.6792698 291.19693069 81.25 290.1875 C81.25 232.7675 81.25 175.3475 81.25 116.1875 C76.3 113.8775 71.35 111.5675 66.25 109.1875 C48.61355272 98.46730655 36.64306664 84.24296658 31.25 64.1875 C30.90086167 61.8564792 30.56552354 59.52330831 30.25 57.1875 C-7.34781445 56.91470916 -43.80976985 57.45954717 -80.98876953 63.30587769 Z " fill="#5B55FF" transform="translate(701.75,297.8125)"/>
<path d="M0 0 C0.98419922 0.35408936 0.98419922 0.35408936 1.98828125 0.71533203 C25.31400245 9.36212782 41.69827542 25.8893836 52.4296875 48.17578125 C63.95581025 74.85557337 62.25208176 105.23583666 52.0703125 131.98046875 C37.73933556 167.66944756 10.04201701 195.93431946 -25.16796875 211.38671875 C-34.28640491 215.26009617 -43.27432139 218.03988249 -53 220 C-53.87527344 220.185625 -54.75054687 220.37125 -55.65234375 220.5625 C-80.58687763 223.82115554 -103.38361307 219.50190911 -123.9375 205 C-125.63896743 203.68453712 -127.32739817 202.35197528 -129 201 C-129.76570313 200.40960937 -130.53140625 199.81921875 -131.3203125 199.2109375 C-148.38256617 185.24010261 -158.15246557 162.28240785 -160.48242188 140.79394531 C-162.91086386 114.28148894 -157.61057726 91.392281 -145 68 C-144.42121094 66.91460937 -143.84242188 65.82921875 -143.24609375 64.7109375 C-139.21726157 57.47586533 -134.43420807 51.23281635 -129 45 C-128.278125 44.15566406 -127.55625 43.31132812 -126.8125 42.44140625 C-112.32236437 25.855376 -94.94701426 14.10096332 -75 5 C-74.13503906 4.59265625 -73.27007812 4.1853125 -72.37890625 3.765625 C-50.70813352 -5.73589424 -22.27534706 -8.02007688 0 0 Z " fill="#5B55FF" transform="translate(563,412)"/>
<path d="M0 0 C1.04801788 0.00027191 2.09603577 0.00054382 3.17581177 0.00082397 C18.63966684 0.01929543 33.87556766 0.41736265 49.25 2.1875 C51.19523058 2.38492344 53.1405454 2.58151833 55.0859375 2.77734375 C79.81515203 5.41496457 103.70310969 11.2833096 127.25 19.1875 C128.55203369 19.6215918 128.55203369 19.6215918 129.88037109 20.06445312 C143.65520364 24.72119971 143.65520364 24.72119971 146.25 29.1875 C146.62719816 32.12267447 146.62719816 32.12267447 146.63031673 35.61873627 C146.63497665 36.26542363 146.63963657 36.912111 146.6444377 37.57839495 C146.65642836 39.75441297 146.64697713 41.92981127 146.63768005 44.10583496 C146.6418512 45.67798923 146.64732751 47.25014049 146.65399987 48.82228613 C146.66850188 53.14958558 146.66419499 57.47669534 146.65683305 61.80400538 C146.65211544 66.46801356 146.66459867 71.13197985 146.67485046 75.79597473 C146.69207104 84.935558 146.69287179 94.07507263 146.68763756 103.21466792 C146.68360096 110.64065221 146.68503333 118.06661617 146.69038582 125.49259949 C146.69113424 126.54831527 146.69188266 127.60403105 146.69265376 128.69173822 C146.69418519 130.83620616 146.69572354 132.9806741 146.69726873 135.12514204 C146.71100537 155.24779446 146.70554774 175.37040803 146.69408352 195.49305958 C146.68414815 213.91650877 146.69709502 232.33985759 146.72101771 250.7632913 C146.74537882 269.66629515 146.75502406 288.5692522 146.74836498 307.47227144 C146.74486633 318.09060873 146.74714739 328.70886876 146.76461601 339.32719421 C146.77930061 348.36558683 146.78002254 357.4038478 146.7625451 366.44223773 C146.75400207 371.05640071 146.75196566 375.67032813 146.76719666 380.28447914 C146.78095584 384.50488176 146.77639477 388.72484509 146.75695742 392.94522172 C146.75316998 394.47544451 146.7561976 396.00570177 146.76656907 397.5358941 C146.77963145 399.60988682 146.76825517 401.68233892 146.75057125 403.75626373 C146.75046391 404.90996413 146.75035658 406.06366452 146.75024599 407.25232553 C146.13784185 410.84558373 145.14283557 412.0276694 142.25 414.1875 C134.75036051 415.31244592 128.24350592 412.4333743 121.25 409.9375 C111.30874969 406.51231875 101.52425274 403.44644406 91.25 401.1875 C89.38794658 400.7633467 87.52597358 400.3388402 85.6640625 399.9140625 C75.25158331 397.5646105 64.88121514 395.26953079 54.25 394.1875 C53.45013672 394.09871582 52.65027344 394.00993164 51.82617188 393.91845703 C14.71885437 389.96363329 -23.77316701 390.32211767 -60.70507812 395.61865234 C-64.88526761 396.21591298 -69.07358482 396.73198721 -73.265625 397.23828125 C-84.67616178 398.63315484 -96.00311211 400.16035622 -107.29589844 402.33764648 C-112.36099356 403.31243702 -117.43804239 404.21791934 -122.515625 405.125 C-124.41408967 405.46599461 -126.31252692 405.8071419 -128.2109375 406.1484375 C-131.11520568 406.67032122 -134.01966433 407.19099953 -136.92480469 407.70800781 C-150.98733552 410.2116505 -150.98733552 410.2116505 -164.88671875 413.48144531 C-170.23010348 414.79906713 -175.65444246 415.71632682 -181.06893921 416.69137573 C-190.90620567 418.46702766 -200.7100552 420.31158525 -210.4375 422.625 C-253.01743979 432.60133265 -297.11366512 440.17798938 -340.75 443.1875 C-341.99467041 443.2795874 -343.23934082 443.3716748 -344.52172852 443.46655273 C-356.82073776 444.32413783 -369.11271996 444.38990815 -381.4375 444.375 C-382.51715027 444.37373108 -383.59680054 444.37246216 -384.70916748 444.37115479 C-413.07663968 444.30774681 -440.01997705 442.3172124 -467.75 436.1875 C-468.77013184 435.96658691 -469.79026367 435.74567383 -470.84130859 435.51806641 C-518.84524742 425.04462887 -518.84524742 425.04462887 -524.75 416.1875 C-525.00415033 413.3776747 -525.00415033 413.3776747 -525.01006222 409.88210487 C-525.01386789 409.23687095 -525.01767356 408.59163702 -525.02159455 407.92685056 C-525.0319574 405.74986977 -525.02799564 403.57314747 -525.02415466 401.39614868 C-525.02860453 399.82557144 -525.03391774 398.25499644 -525.04002339 396.68442476 C-525.05424395 392.35683905 -525.05586591 388.02932502 -525.05542648 383.70171928 C-525.05707111 379.03904093 -525.0701309 374.37639242 -525.08161926 369.71372986 C-525.10449515 359.51348431 -525.11239252 349.31325953 -525.11744571 339.11299181 C-525.12069944 332.7473968 -525.12721992 326.38180786 -525.1344471 320.01621628 C-525.15401568 302.40130368 -525.17041862 284.78639672 -525.17332363 267.17147255 C-525.1735112 266.04367584 -525.17369877 264.91587912 -525.17389202 263.75390675 C-525.17425828 261.46746437 -525.17462198 259.18102199 -525.17498314 256.8945796 C-525.17516595 255.75954412 -525.17534876 254.62450863 -525.17553711 253.45507812 C-525.17571766 252.31866195 -525.17589821 251.18224578 -525.17608423 250.01139276 C-525.17962749 231.58854174 -525.2066582 213.1658075 -525.244035 194.74299701 C-525.28207772 175.84115418 -525.30148081 156.93936936 -525.30178314 138.03748739 C-525.30236859 127.4196336 -525.31091689 116.80191913 -525.33978081 106.1841011 C-525.36424068 97.14460434 -525.37161413 88.10529771 -525.35653328 79.06577684 C-525.34934244 74.45144026 -525.35031494 69.83747951 -525.37294388 65.22318459 C-525.39345015 61.00138632 -525.39101254 56.78025483 -525.37006903 52.55846445 C-525.36655804 51.02886066 -525.37155189 49.49920957 -525.38577347 47.96966787 C-525.40383502 45.89382295 -525.3912216 43.82034887 -525.37082577 41.74457741 C-525.37164022 40.59071466 -525.37245468 39.43685191 -525.37329382 38.24802363 C-524.55293063 34.21984168 -522.94523337 32.69287148 -519.75 30.1875 C-514.22421833 30.18091385 -509.29477567 32.3225072 -504.1875 34.25 C-485.72047953 40.90846248 -466.71873032 45.77686053 -447.375 49.0625 C-446.26205566 49.25344238 -445.14911133 49.44438477 -444.00244141 49.64111328 C-424.14439893 52.78589732 -404.13802968 53.57501652 -384.0625 53.5 C-382.40466995 53.49577026 -382.40466995 53.49577026 -380.71334839 53.49145508 C-330.00066439 53.29885054 -280.43204261 44.84144587 -230.75 35.1875 C-229.6770166 34.98092773 -228.6040332 34.77435547 -227.49853516 34.56152344 C-216.40554431 32.41899779 -205.34821151 30.10630124 -194.2890625 27.796875 C-193.24779205 27.57953201 -192.20652161 27.36218903 -191.13369751 27.13825989 C-185.88545196 26.04241709 -180.63775653 24.94406584 -175.39111328 23.84057617 C-165.08215674 21.67756103 -154.76615796 19.58275602 -144.41314697 17.64073181 C-139.35444734 16.69060141 -134.30726711 15.69752282 -129.26495361 14.66404724 C-117.97317631 12.35542502 -106.63938124 10.44627075 -95.25 8.6875 C-93.80729736 8.46305206 -93.80729736 8.46305206 -92.33544922 8.23406982 C-73.5325673 5.32157434 -54.69196184 2.98064863 -35.75 1.1875 C-34.73389648 1.0836499 -33.71779297 0.9797998 -32.67089844 0.87280273 C-21.80557047 -0.12404069 -10.90112888 -0.01058788 0 0 Z M-50.29925537 17.88671875 C-53.01041373 18.21946072 -55.72303637 18.53808909 -58.43603516 18.85546875 C-100.15522424 23.76567271 -141.20826679 31.34100587 -182.18359375 40.52734375 C-192.32386808 42.78328815 -202.51564734 44.78344282 -212.70727539 46.79174805 C-214.08871898 47.06421658 -215.47014826 47.33675768 -216.8515625 47.609375 C-217.52809875 47.7426973 -218.20463501 47.87601959 -218.90167236 48.01338196 C-223.08724583 48.84299769 -227.2580462 49.72603442 -231.42578125 50.640625 C-240.06516713 52.50787085 -248.75564758 54.08797089 -257.45141602 55.66699219 C-260.28420964 56.18235323 -263.11574223 56.70427369 -265.94726562 57.2265625 C-278.50924223 59.52522745 -291.09203276 61.4970906 -303.75 63.1875 C-304.93779053 63.34621582 -306.12558105 63.50493164 -307.34936523 63.66845703 C-372.74901441 72.10678745 -439.16797031 70.73939315 -502.43945312 50.84838867 C-504.84204969 50.16117091 -507.29958039 49.67758392 -509.75 49.1875 C-509.75 167.6575 -509.75 286.1275 -509.75 408.1875 C-501.78249655 411.5072931 -494.30796694 414.43121128 -486.0625 416.6875 C-484.98871094 416.98301758 -483.91492188 417.27853516 -482.80859375 417.58300781 C-410.7085125 436.97355997 -334.53613102 430.90069765 -261.94348145 417.58850098 C-259.87426583 417.21021764 -257.80414835 416.83755481 -255.73339844 416.46777344 C-248.06122505 415.09651634 -240.40126967 413.67087146 -232.75 412.1875 C-231.75468262 411.99478516 -230.75936523 411.80207031 -229.73388672 411.60351562 C-216.04708386 408.93831901 -202.40527897 406.06910629 -188.76818848 403.16265869 C-179.28163869 401.14088649 -169.7906897 399.15399645 -160.2734375 397.28125 C-156.44372679 396.52738153 -152.61775994 395.75618799 -148.7930603 394.97729492 C-145.78419699 394.3648881 -142.77464791 393.75588481 -139.76507568 393.14697266 C-138.30047479 392.84987704 -136.8361402 392.55146425 -135.37213135 392.25146484 C-114.21998734 387.92017896 -92.9417155 384.67897054 -71.52734375 381.94995117 C-67.96020617 381.49492386 -64.39413844 381.03210649 -60.828125 380.56835938 C-58.5156832 380.2703813 -56.20318518 379.97283915 -53.890625 379.67578125 C-52.84666565 379.5403743 -51.8027063 379.40496735 -50.72711182 379.26545715 C-39.56059899 377.84942849 -28.53547943 377.03114988 -17.27734375 377.01953125 C-16.11537979 377.01620285 -14.95341583 377.01287445 -13.75624084 377.00944519 C-11.30486441 377.00441182 -8.85348121 377.00203575 -6.40209961 377.00219727 C-2.74906294 377.00003642 0.90365821 376.98191272 4.55664062 376.96289062 C27.28581107 376.90616919 49.77087599 378.14184588 72.1875 382 C72.96985016 382.13100098 73.75220032 382.26200195 74.55825806 382.39697266 C90.9983912 385.15188118 106.86658946 388.76397366 122.6081543 394.30859375 C125.61986021 395.3656987 128.03180484 396.1875 131.25 396.1875 C131.25 277.7175 131.25 159.2475 131.25 37.1875 C75.1680254 13.82001058 9.51276673 10.45196388 -50.29925537 17.88671875 Z " fill="#FCFCFF" transform="translate(701.75,297.8125)"/>
<path d="M0 0 C3.65664553 0.01846542 7.31303881 0.02050732 10.96972656 0.02026367 C13.33691622 0.02517402 15.7041042 0.03100022 18.07128906 0.0378418 C19.1433963 0.03895462 20.21550354 0.04006744 21.32009888 0.04121399 C24.38256378 0.06019726 27.43974192 0.11773316 30.50097656 0.20581055 C31.5900531 0.23653656 32.67912964 0.26726257 33.8012085 0.29891968 C34.86599426 0.35415802 35.93078003 0.40939636 37.02783203 0.46630859 C38.46060989 0.53364449 38.46060989 0.53364449 39.92233276 0.6023407 C43.19210343 1.36755224 44.43484105 2.59968467 46.50097656 5.20581055 C47.18847656 8.2722168 47.18847656 8.2722168 47.50097656 11.76831055 C49.19886269 25.78675496 55.22212275 39.2368327 66.50097656 48.20581055 C74.43447713 53.94047182 81.94922159 57.37698543 91.28613281 60.00268555 C94.84153061 61.33325969 96.21947708 62.19872071 98.50097656 65.20581055 C98.89393208 67.94435428 99.04192376 70.2811501 99.00891113 73.01817322 C99.0151511 73.81027225 99.02139106 74.60237127 99.02782011 75.4184733 C99.04378933 78.07567071 99.03113081 80.73195576 99.01855469 83.38916016 C99.02397411 85.29294877 99.03109576 87.19673319 99.03979492 89.10050964 C99.05805376 94.27410151 99.05094981 99.44737485 99.03827858 104.62097239 C99.02816272 110.03187475 99.03754046 115.44274954 99.04382324 120.85365295 C99.05110439 129.94203597 99.04150031 139.03028905 99.02246094 148.11865234 C99.00069789 158.62856718 99.00773763 169.13817157 99.02976656 179.64807886 C99.04791502 188.66729832 99.05048138 197.68642429 99.04001188 206.70565611 C99.03377308 212.09429326 99.03295186 217.48278448 99.04615784 222.87141228 C99.05770737 227.93827794 99.04970685 233.00474324 99.02658081 238.07156563 C99.02128866 239.93196574 99.02281613 241.7923995 99.03163147 243.65278625 C99.04255088 246.19113478 99.02886767 248.72819779 99.00891113 251.26646423 C99.01783402 252.00401552 99.02675691 252.7415668 99.03595018 253.50146812 C98.98072953 257.11861918 98.57316766 259.09305783 96.6034317 262.16951847 C94.50097656 264.20581055 94.50097656 264.20581055 92.35375977 264.72583008 C91.2142688 264.6579126 91.2142688 264.6579126 90.05175781 264.58862305 C89.20291016 264.55897461 88.3540625 264.52932617 87.47949219 264.4987793 C86.15981445 264.41563477 86.15981445 264.41563477 84.81347656 264.33081055 C74.53654926 263.76115315 66.73183539 265.30274073 58.64550781 271.98706055 C50.43037778 280.48650292 47.44311858 290.40284742 47.04003906 301.90893555 C46.30139262 305.0562117 44.99113795 306.17802944 42.50097656 308.20581055 C39.9420929 308.65991211 39.9420929 308.65991211 37.00610352 308.59643555 C35.34085632 308.57689568 35.34085632 308.57689568 33.64196777 308.55696106 C31.83387634 308.50689156 31.83387634 308.50689156 29.98925781 308.45581055 C27.38810857 308.42106991 24.78695262 308.38682922 22.18579102 308.35302734 C20.80545902 308.32856639 19.42513866 308.30344079 18.04483032 308.27767944 C10.94740595 308.15029751 3.84942966 308.11500016 -3.24902344 308.1003418 C-4.30760087 308.09795974 -4.30760087 308.09795974 -5.38756371 308.09552956 C-23.15567281 308.07620817 -40.63336581 309.56068233 -58.2355957 311.90509033 C-60.50807995 312.2070138 -62.78164693 312.49917384 -65.05566406 312.78930664 C-95.91136055 316.75632816 -126.42889552 322.39960345 -156.82302856 328.98687744 C-162.8286425 330.28503887 -168.84724916 331.510286 -174.87402344 332.70581055 C-175.8449292 332.89852539 -176.81583496 333.09124023 -177.81616211 333.28979492 C-179.87831925 333.69833392 -181.94057938 334.10635328 -184.00292969 334.51391602 C-190.36848697 335.77369181 -196.73212314 337.04308318 -203.09552002 338.3137207 C-205.28240928 338.75003238 -207.46955812 339.18502241 -209.65673828 339.61987305 C-211.05993252 339.899637 -212.4630901 340.17958494 -213.86621094 340.4597168 C-214.92224014 340.67014618 -214.92224014 340.67014618 -215.99960327 340.88482666 C-219.64582387 341.6160678 -223.28505252 342.37092777 -226.91796875 343.16577148 C-240.03994921 346.02695188 -253.2379215 348.21967994 -266.49902344 350.33081055 C-269.75353134 350.85279193 -273.00782342 351.37608688 -276.26196289 351.90036011 C-278.26414822 352.22253257 -280.2665718 352.54322971 -282.26928711 352.86209106 C-286.96906243 353.6144981 -291.65664165 354.40770463 -296.33764648 355.26977539 C-324.2148332 360.39348659 -352.78546808 361.38556989 -381.06152344 361.39331055 C-382.03151276 361.39430756 -383.00150208 361.39530457 -384.00088501 361.39633179 C-390.16873098 361.39561243 -396.33249281 361.33034592 -402.49902344 361.20581055 C-403.19437195 361.19680725 -403.88972046 361.18780396 -404.60614014 361.17852783 C-414.25804567 361.01572753 -414.25804567 361.01572753 -418.74902344 358.0847168 C-420.85991161 354.61211729 -421.22681438 352.188167 -421.49902344 348.14331055 C-422.6131241 336.61822864 -426.83486532 327.80097269 -434.49902344 319.20581055 C-435.28212891 318.28348633 -435.28212891 318.28348633 -436.08105469 317.3425293 C-443.96117059 308.69549214 -454.24019315 304.59211144 -465.24902344 301.54174805 C-469.11945059 299.95077919 -470.28443067 298.73250653 -472.49902344 295.20581055 C-472.88638362 292.42485355 -473.04470519 290.04259 -473.01368713 287.26646423 C-473.02063266 286.47280521 -473.02757819 285.6791462 -473.03473419 284.8614369 C-473.05301423 282.20502661 -473.04273744 279.54950838 -473.0324707 276.89306641 C-473.03952858 274.98750642 -473.04827304 273.08195205 -473.05857849 271.17640686 C-473.08109417 266.00295389 -473.07812806 260.82980653 -473.06925702 255.65632319 C-473.06415073 251.33941299 -473.07143658 247.02256039 -473.07872909 242.70565611 C-473.09573423 232.52458549 -473.09215508 222.34366475 -473.07543945 212.16259766 C-473.0585063 201.6520266 -473.07436779 191.14187049 -473.10666233 180.63134474 C-473.13332943 171.61126723 -473.14064236 162.59131913 -473.13214725 153.57120615 C-473.127211 148.1820149 -473.12947179 142.79307353 -473.14993477 137.4039135 C-473.16824735 132.33861668 -473.16238742 127.27391874 -473.13773537 122.2086544 C-473.13271393 120.3478297 -473.13625164 118.48695971 -473.14888382 116.62617111 C-473.1647448 114.08947707 -473.14993142 111.55477218 -473.12721252 109.01817322 C-473.14496612 107.90850021 -473.14496612 107.90850021 -473.16307837 106.77640957 C-473.09389968 102.98579742 -472.78577036 101.49949134 -470.09333706 98.74195194 C-467.42026692 97.15917735 -466.27961165 96.75432323 -463.24121094 96.95581055 C-462.45593018 96.98989014 -461.67064941 97.02396973 -460.86157227 97.05908203 C-460.04068115 97.10750244 -459.21979004 97.15592285 -458.37402344 97.20581055 C-448.60013352 97.47439039 -441.0972101 96.30594285 -433.18652344 90.14331055 C-424.52251286 81.85290207 -421.44578871 71.14074654 -421.03808594 59.50268555 C-420.25905054 56.18331732 -419.28485476 55.21632862 -416.49902344 53.20581055 C-413.14692324 52.6775357 -409.83931133 52.83833857 -406.45605469 52.95581055 C-404.35279254 52.99056004 -402.24952046 53.02471238 -400.14624023 53.05834961 C-399.03340668 53.08320435 -397.92057312 53.10805908 -396.77401733 53.13366699 C-355.42780596 53.99514509 -313.17937532 51.12314804 -272.59503174 42.83285522 C-266.00305898 41.49046059 -259.39691894 40.25042884 -252.77636719 39.05737305 C-251.27856468 38.78697205 -251.27856468 38.78697205 -249.75050354 38.5111084 C-247.69757533 38.1407155 -245.64461166 37.77051917 -243.59161377 37.4005127 C-228.16231837 34.61450602 -212.78330228 31.77234515 -197.50634766 28.23364258 C-188.93500411 26.25733762 -180.31901701 24.65066394 -171.66259766 23.0949707 C-163.81733743 21.6717405 -156.03454063 20.04855948 -148.24902344 18.33081055 C-122.14731468 12.65900162 -95.94473773 8.18826943 -69.43652344 4.89331055 C-68.44898071 4.77020508 -67.46143799 4.64709961 -66.44396973 4.52026367 C-59.80083043 3.69947257 -53.15247409 2.93783108 -46.49902344 2.20581055 C-45.61388062 2.10483063 -44.72873779 2.00385071 -43.81677246 1.89981079 C-29.1977102 0.25616697 -14.7046817 -0.07677383 0 0 Z M-78.73779297 21.32418823 C-83.37129622 22.04754478 -88.00782509 22.66190768 -92.66357422 23.21948242 C-108.45215285 25.13704744 -123.99615258 28.60801768 -139.56532288 31.79780579 C-145.84420095 33.08138449 -152.13439724 34.29159168 -158.43652344 35.45581055 C-164.91576439 36.6618526 -171.31185649 38.07401778 -177.71313477 39.63867188 C-185.26632535 41.45175339 -192.89612773 42.84733936 -200.52807617 44.28417969 C-207.46539041 45.59852905 -214.36085538 47.03136752 -221.24902344 48.58081055 C-244.16761704 53.67817576 -267.3751162 57.9756582 -290.6796875 60.84350586 C-293.94473695 61.2630879 -297.20175254 61.72825905 -300.45996094 62.19799805 C-315.44183479 64.35164858 -330.39078718 66.22729482 -345.49902344 67.20581055 C-346.14880157 67.24884308 -346.79857971 67.29187561 -347.4680481 67.33621216 C-360.54928287 68.1817574 -373.58144271 68.32866064 -386.68652344 68.26831055 C-388.62337122 68.2632764 -390.56022029 68.25871694 -392.49707031 68.25463867 C-397.164421 68.24380565 -401.83170715 68.22665107 -406.49902344 68.20581055 C-406.68440674 69.00027588 -406.86979004 69.79474121 -407.06079102 70.61328125 C-410.54342501 85.10788249 -416.30358538 96.66986334 -428.99902344 105.08081055 C-438.8060802 110.88197937 -445.27466541 111.57589614 -457.49902344 113.20581055 C-457.49902344 170.62581055 -457.49902344 228.04581055 -457.49902344 287.20581055 C-450.07402344 290.67081055 -450.07402344 290.67081055 -442.49902344 294.20581055 C-421.38646415 307.03893482 -412.10086274 323.03330311 -405.49902344 346.20581055 C-358.6763318 347.05843989 -313.60960355 344.07551295 -267.55596924 335.5847168 C-265.51783658 335.20927608 -263.4790052 334.83787642 -261.43994141 334.4675293 C-252.82276364 332.89912714 -244.21799627 331.26891362 -235.61730957 329.6126709 C-233.39959435 329.18671315 -231.18132108 328.763769 -228.96289062 328.34155273 C-206.25079295 324.02317248 -206.25079295 324.02317248 -183.67504883 319.05151367 C-174.41166265 316.89497687 -165.07087247 315.14457249 -155.72949219 313.36572266 C-148.86302019 312.05705843 -142.01493928 310.70031392 -135.18652344 309.20581055 C-109.03420546 303.60595726 -82.67174219 299.77413476 -56.11230469 296.74194336 C-52.04848733 296.27582669 -47.99289341 295.75648882 -43.93652344 295.22924805 C-18.573085 292.14272866 6.99776665 292.92033893 32.50097656 293.20581055 C32.78013916 292.0130249 32.78013916 292.0130249 33.06494141 290.79614258 C36.54943439 276.31819545 42.52940639 263.91710711 55.56347656 255.76831055 C57.19315001 254.88370187 58.83811614 254.02633676 60.50097656 253.20581055 C61.43296875 252.73208008 61.43296875 252.73208008 62.38378906 252.2487793 C69.1921675 249.25721907 75.93024636 249.21524124 83.50097656 248.20581055 C83.50097656 190.78581055 83.50097656 133.36581055 83.50097656 74.20581055 C78.55097656 71.89581055 73.60097656 69.58581055 68.50097656 67.20581055 C50.86452928 56.4856171 38.89404321 42.26127712 33.50097656 22.20581055 C33.15183824 19.87478974 32.8165001 17.54161885 32.50097656 15.20581055 C-5.09683789 14.93301971 -41.55879329 15.47785771 -78.73779297 21.32418823 Z " fill="#FCFBFF" transform="translate(699.4990234375,339.794189453125)"/>
<path d="M0 0 C0.98419922 0.35408936 0.98419922 0.35408936 1.98828125 0.71533203 C25.31400245 9.36212782 41.69827542 25.8893836 52.4296875 48.17578125 C63.95581025 74.85557337 62.25208176 105.23583666 52.0703125 131.98046875 C37.73933556 167.66944756 10.04201701 195.93431946 -25.16796875 211.38671875 C-34.28640491 215.26009617 -43.27432139 218.03988249 -53 220 C-53.87527344 220.185625 -54.75054687 220.37125 -55.65234375 220.5625 C-80.58687763 223.82115554 -103.38361307 219.50190911 -123.9375 205 C-125.63896743 203.68453712 -127.32739817 202.35197528 -129 201 C-129.76570313 200.40960937 -130.53140625 199.81921875 -131.3203125 199.2109375 C-148.38256617 185.24010261 -158.15246557 162.28240785 -160.48242188 140.79394531 C-162.91086386 114.28148894 -157.61057726 91.392281 -145 68 C-144.42121094 66.91460937 -143.84242188 65.82921875 -143.24609375 64.7109375 C-139.21726157 57.47586533 -134.43420807 51.23281635 -129 45 C-128.278125 44.15566406 -127.55625 43.31132812 -126.8125 42.44140625 C-112.32236437 25.855376 -94.94701426 14.10096332 -75 5 C-74.13503906 4.59265625 -73.27007812 4.1853125 -72.37890625 3.765625 C-50.70813352 -5.73589424 -22.27534706 -8.02007688 0 0 Z M-65 17 C-65.99265869 17.35239746 -65.99265869 17.35239746 -67.00537109 17.71191406 C-82.52048058 23.33813745 -95.93868323 32.91497868 -108 44 C-108.88300781 44.80050781 -109.76601563 45.60101563 -110.67578125 46.42578125 C-131.8170075 66.51487805 -145.59123093 95.63974837 -146.40209961 124.79174805 C-146.64605247 146.46990416 -140.98744609 167.54537166 -125.78515625 183.68530273 C-120.10823921 189.4714607 -114.16470131 194.1325129 -107 198 C-106.14019531 198.47050781 -105.28039062 198.94101562 -104.39453125 199.42578125 C-86.20737021 208.53279394 -62.9293181 208.76345813 -43.73950195 202.8293457 C-10.76756248 191.67776363 17.23106452 169.6811098 32.90625 138.234375 C44.84683661 113.59754749 49.87456356 86.59461281 41 60 C37.59377486 51.29120301 33.06954518 43.13467428 27 36 C26.58878906 35.43539062 26.17757812 34.87078125 25.75390625 34.2890625 C15.80022042 21.2340799 -1.10674251 14.69725416 -16.6328125 11.44921875 C-33.55936512 9.19103598 -49.05576193 11.16900361 -65 17 Z " fill="#FCFCFF" transform="translate(563,412)"/>
<path d="M0 0 C6.61864044 3.74916658 11.34877835 8.46042578 13.625 15.8125 C15.02713026 25.95315925 12.57640968 35.03490481 6.625 43.3125 C4.55887207 45.96253365 2.3681122 47.87340344 -0.375 49.8125 C1.69085567 56.86071348 4.73229758 62.99265542 8.296875 69.3828125 C9.85583697 73.40860254 9.67563808 75.6657787 8.625 79.8125 C6.41390612 82.35116334 4.98798997 82.74299128 1.6875 83.375 C-1.88581139 82.7186775 -2.8673475 81.52410973 -5.06616211 78.73999023 C-7.55578978 75.07358277 -9.34843323 71.08335481 -11.1875 67.0625 C-11.79754883 65.76892578 -11.79754883 65.76892578 -12.41992188 64.44921875 C-15.375 58.10200893 -15.375 58.10200893 -15.375 55.8125 C-16.42300781 56.0290625 -17.47101563 56.245625 -18.55078125 56.46875 C-19.92965627 56.75015307 -21.30856426 57.03139464 -22.6875 57.3125 C-23.37779297 57.45558594 -24.06808594 57.59867188 -24.77929688 57.74609375 C-27.70024773 58.33875044 -30.38608122 58.8125 -33.375 58.8125 C-33.35143433 60.10667847 -33.35143433 60.10667847 -33.32739258 61.42700195 C-33.27624045 64.63059267 -33.2386384 67.83397515 -33.21020508 71.0378418 C-33.19512603 72.42397919 -33.1746595 73.81006894 -33.14868164 75.19604492 C-33.11226284 77.18908146 -33.09686982 79.18246723 -33.08203125 81.17578125 C-33.0663208 82.37501221 -33.05061035 83.57424316 -33.03442383 84.80981445 C-33.375 87.8125 -33.375 87.8125 -34.6472168 89.69604492 C-37.07794321 91.26672627 -39.50337779 91.27508394 -42.33984375 91.40625 C-45.57222055 90.46321493 -46.56977319 88.5937314 -48.375 85.8125 C-48.76204406 83.15249064 -48.92352925 80.90939822 -48.89257812 78.25585938 C-48.8995874 77.51213577 -48.90659668 76.76841217 -48.91381836 76.00215149 C-48.9313685 73.55313353 -48.9197871 71.10527892 -48.90625 68.65625 C-48.90894579 66.94901305 -48.91282894 65.2417776 -48.91784668 63.5345459 C-48.92373766 59.96021882 -48.91519192 56.38629217 -48.89648438 52.81201172 C-48.87369477 48.23526893 -48.88682004 43.65946443 -48.91077423 39.08275604 C-48.92524321 35.55850177 -48.92062124 32.03446916 -48.91026306 28.51020813 C-48.9075988 26.82294096 -48.91085497 25.13565353 -48.92018127 23.44841003 C-48.93036539 21.08811298 -48.91482186 18.72932552 -48.89257812 16.36914062 C-48.90067505 15.67496536 -48.90877197 14.9807901 -48.91711426 14.26557922 C-48.83477396 9.53847399 -47.74490768 7.11046889 -44.375 3.8125 C-41.67358398 2.80175781 -41.67358398 2.80175781 -38.62109375 2.265625 C-37.51958984 2.06066406 -36.41808594 1.85570312 -35.28320312 1.64453125 C-33.56520508 1.35642578 -33.56520508 1.35642578 -31.8125 1.0625 C-29.54016789 0.65212931 -27.2680232 0.2407191 -24.99609375 -0.171875 C-23.9898999 -0.34428711 -22.98370605 -0.51669922 -21.94702148 -0.69433594 C-7.31713134 -3.4994976 -7.31713134 -3.4994976 0 0 Z " fill="#FBFBFF" transform="translate(502.375,483.1875)"/>
<path d="M0 0 C5.16388847 4.75673573 8.54490389 9.24983303 9.40625 16.34765625 C9.68250231 27.29415396 7.2616244 35.70860316 -0.3125 43.9375 C-1.50840867 44.9971008 -2.73806739 46.01996048 -4 47 C-4.87978516 47.68835938 -4.87978516 47.68835938 -5.77734375 48.390625 C-14.261855 53.96856111 -26.9391749 56.19720627 -37 56 C-36.97905273 56.82201904 -36.95810547 57.64403809 -36.93652344 58.4909668 C-36.85326691 62.22301964 -36.80130753 65.95487694 -36.75 69.6875 C-36.71648438 70.98107422 -36.68296875 72.27464844 -36.6484375 73.60742188 C-36.63554688 74.85458984 -36.62265625 76.10175781 -36.609375 77.38671875 C-36.58842773 78.53358154 -36.56748047 79.68044434 -36.54589844 80.86206055 C-37.10035341 84.69346365 -38.23967879 86.32597721 -41 89 C-44.5 89.625 -44.5 89.625 -48 89 C-50.98561302 86.19349499 -51.92651398 84.51024081 -52.5146637 80.42649841 C-52.54130397 79.03253825 -52.54618171 77.63805303 -52.53344727 76.24389648 C-52.54206284 75.47905945 -52.55067841 74.71422241 -52.55955505 73.9262085 C-52.58218948 71.40748908 -52.57548259 68.88988431 -52.56640625 66.37109375 C-52.57164215 64.61661957 -52.5779185 62.8621482 -52.58518982 61.10768127 C-52.59558867 57.43501515 -52.59103883 53.76273663 -52.57641602 50.09008789 C-52.55920892 45.38308297 -52.58274914 40.67729653 -52.61790562 35.97042751 C-52.63985936 32.34926767 -52.63844346 28.72840048 -52.6301403 25.1071949 C-52.62932005 23.37164026 -52.63619766 21.63606429 -52.65091133 19.90057182 C-52.66832551 17.47518656 -52.65384507 15.05200534 -52.63110352 12.62670898 C-52.64279572 11.91023697 -52.65448792 11.19376495 -52.66653442 10.45558167 C-52.59540069 6.72860443 -52.2755382 5.28010442 -49.61984253 2.58039856 C-46.93210001 0.95903988 -44.81458494 0.16382738 -41.75390625 -0.484375 C-40.26032593 -0.80450562 -40.26032593 -0.80450562 -38.73657227 -1.13110352 C-37.68912842 -1.33533936 -36.64168457 -1.5395752 -35.5625 -1.75 C-33.94976196 -2.07085571 -33.94976196 -2.07085571 -32.30444336 -2.39819336 C-9.44119228 -6.72497625 -9.44119228 -6.72497625 0 0 Z " fill="#FDFDFF" transform="translate(573,472)"/>
<path d="M0 0 C2.10620202 4.21240405 2.09460976 8.02231866 1.3125 12.625 C-0.7148342 18.01565362 -4.18521469 21.77368269 -9.16796875 24.59375 C-15.62150856 27.23519885 -22.72987376 28.625 -29.6875 28.625 C-29.6875 20.045 -29.6875 11.465 -29.6875 2.625 C-7.73907593 -3.95952722 -7.73907593 -3.95952722 0 0 Z " fill="#5C56FF" transform="translate(565.6875,484.375)"/>
<path d="M0 0 C2.64687002 2.64687002 3.06326018 3.50760184 3.4375 7.25 C2.9451878 13.35467129 0.71821731 17.32752406 -3.3125 21.875 C-10.14467301 27.02086059 -19.69876416 28.10297052 -27.875 29.125 C-27.875 20.215 -27.875 11.305 -27.875 2.125 C-25.049375 1.465 -22.22375 0.805 -19.3125 0.125 C-18.43650146 -0.08382813 -17.56050293 -0.29265625 -16.65795898 -0.5078125 C-4.88757862 -3.18755127 -4.88757862 -3.18755127 0 0 Z " fill="#5C56FF" transform="translate(497.875,497.875)"/>
</svg>
