<?xml version="1.0" encoding="UTF-8"?>
<svg version="1.1" xmlns="http://www.w3.org/2000/svg" width="1080" height="1080">
<path d="M0 0 C0.72614502 0.11684143 1.45229004 0.23368286 2.20043945 0.35406494 C19.05681727 3.11067476 35.25467986 8.02274798 51.45654297 13.35449219 C53.0498414 13.87557507 54.64564505 14.38904958 56.24365234 14.89550781 C58.60289108 15.64343163 60.95412581 16.41279815 63.3046875 17.1875 C64.01503143 17.40849365 64.72537537 17.6294873 65.45724487 17.85717773 C70.07369373 19.41656024 72.31980638 21.03976712 74.9375 25.125 C75.43889666 28.32428694 75.43889666 28.32428694 75.44086456 32.02007294 C75.44667833 32.70475877 75.45249209 33.38944461 75.45848203 34.09487849 C75.47310602 36.39429776 75.45918664 38.69265356 75.44543457 40.99206543 C75.45004256 42.65511735 75.45639479 44.3181652 75.46434355 45.98120451 C75.48107405 50.55519944 75.47277366 55.12886145 75.46039867 59.70285773 C75.4513657 64.63408676 75.46530919 69.56525766 75.47631836 74.49647522 C75.49412692 84.15832142 75.49025319 93.8200435 75.4786678 103.48189461 C75.46964294 111.33262091 75.46840537 119.18331236 75.47276306 127.03404236 C75.47337599 128.15039187 75.47398893 129.26674139 75.47462043 130.41691968 C75.4758993 132.68459436 75.47719615 134.95226904 75.4785108 137.2199437 C75.48992344 158.49577161 75.47679215 179.77153064 75.45530933 201.04734725 C75.43743774 219.31236106 75.44054166 237.57727318 75.45898438 255.84228516 C75.48037899 277.0407499 75.48882474 298.23915424 75.47653532 319.43762827 C75.47526109 321.69707138 75.47400361 323.95651451 75.47276306 326.21595764 C75.47214596 327.32771558 75.47152886 328.43947352 75.47089306 329.58492109 C75.46743593 337.42836849 75.47327631 345.27177764 75.48268127 353.11521912 C75.49388699 362.67068993 75.49089129 372.22602926 75.4695583 381.78148496 C75.45902865 386.65905456 75.45495861 391.53640476 75.46815491 396.41397285 C75.48004506 400.87617542 75.4735723 405.33795454 75.4522447 409.80011851 C75.44776426 411.41713591 75.45007711 413.03418885 75.45974785 414.65118355 C75.47186313 416.84461097 75.45948861 419.0365767 75.44086456 421.22992706 C75.44021515 422.44953644 75.43956574 423.66914582 75.43889666 424.92571306 C74.84062549 428.74313208 73.61857634 430.39523589 70.9375 433.125 C66.14051613 435.52349193 59.46686305 433.093129 54.609375 431.5234375 C52.63373868 430.85388931 50.65986241 430.17913193 48.6875 429.5 C35.66776869 425.17476795 22.4872095 421.91151384 9.11914062 418.859375 C6.41049366 418.23417472 3.71223486 417.58097233 1.015625 416.90625 C-24.55898136 410.63215275 -51.16756825 409.91452088 -77.375 409.9375 C-78.43464966 409.93743958 -79.49429932 409.93737915 -80.58605957 409.93731689 C-95.92085744 409.94975693 -111.10304326 410.30114604 -126.37060547 411.85595703 C-128.93433142 412.11219012 -131.49780703 412.32669587 -134.06640625 412.52734375 C-146.76206149 413.56999452 -159.26311777 415.70038961 -171.80554199 417.87667847 C-178.45153849 419.02736275 -185.10435532 420.13557191 -191.7578125 421.2421875 C-213.69277734 424.89997989 -235.58948321 428.55773456 -257.31713867 433.31469727 C-273.97220621 436.91799361 -290.67704547 440.27894136 -307.39916992 443.55493164 C-310.62800485 444.18808924 -313.85600247 444.82540021 -317.08398438 445.46289062 C-328.52506182 447.71250474 -339.97331937 449.86473961 -351.47596741 451.77833557 C-355.46137646 452.45036099 -359.39555384 453.16513483 -363.3125 454.16674805 C-369.18377874 455.66705853 -375.14283523 456.56167107 -381.125 457.5 C-381.80447693 457.60727417 -382.48395386 457.71454834 -383.184021 457.82507324 C-395.31316865 459.72107396 -407.47460075 461.1411252 -419.6875 462.375 C-420.504534 462.45772156 -421.32156799 462.54044312 -422.1633606 462.62567139 C-490.75059692 469.50417872 -557.93216834 465.78227561 -623.375 443 C-624.30626709 442.68764404 -625.23753418 442.37528809 -626.19702148 442.0534668 C-627.05626221 441.74449463 -627.91550293 441.43552246 -628.80078125 441.1171875 C-629.93060425 440.72055908 -629.93060425 440.72055908 -631.08325195 440.31591797 C-633.82499662 438.66620408 -634.65538964 436.99436619 -636.0625 434.125 C-636.44084883 430.93327576 -636.44084883 430.93327576 -636.44561005 427.24833775 C-636.45056956 426.56563988 -636.45552908 425.88294202 -636.46063888 425.17955634 C-636.47361427 422.88705805 -636.46520449 420.59514037 -636.45690918 418.30262756 C-636.46179717 416.64441449 -636.46798655 414.98620482 -636.47536707 413.32800096 C-636.49180129 408.76739768 -636.4894416 404.20696688 -636.4839921 399.6463443 C-636.48132621 394.72941271 -636.49584535 389.81252754 -636.50808716 384.89561462 C-636.52916155 375.26153336 -636.53368088 365.62751224 -636.53189927 355.99341065 C-636.53059273 348.16462571 -636.53439026 340.33585957 -636.54182434 332.50707817 C-636.54392348 330.2538293 -636.54602109 328.00058043 -636.54811716 325.74733156 C-636.54916069 324.62590529 -636.55020422 323.50447901 -636.55127937 322.34907012 C-636.57018962 301.13093282 -636.56912904 279.91283008 -636.56231004 258.69468784 C-636.55673316 239.2735594 -636.5775648 219.85256283 -636.61067051 200.43146522 C-636.64438292 180.50010785 -636.65957895 160.56881369 -636.65495348 140.63742727 C-636.65270642 129.44334112 -636.65798662 118.24937686 -636.68284607 107.05531502 C-636.70382749 97.52621172 -636.70748254 87.99729717 -636.68854648 78.46818621 C-636.67936939 73.60461676 -636.67830587 68.74139952 -636.69890213 63.87785721 C-636.71754156 59.4272532 -636.71318816 54.9772916 -636.69035631 50.52671259 C-636.68615271 48.91505577 -636.69042941 47.30335038 -636.70395225 45.69174481 C-636.72107076 43.50288457 -636.70745175 41.316278 -636.68611908 39.1275034 C-636.68639146 37.9113115 -636.68666385 36.6951196 -636.68694448 35.4420734 C-635.84548461 30.97220583 -634.26568667 29.32136127 -631.0625 26.125 C-625.65300275 24.04793566 -621.56224524 26.1047176 -616.5 28.1875 C-598.82201685 35.05156703 -580.61794256 39.36276815 -562.0625 43.125 C-561.14903809 43.31336426 -560.23557617 43.50172852 -559.29443359 43.69580078 C-534.93604052 48.69340324 -510.77048541 50.33159261 -485.9375 50.25 C-484.66740082 50.24767365 -484.66740082 50.24767365 -483.37164307 50.24530029 C-457.80733573 50.19064105 -432.51020957 49.26723506 -407.28710938 44.85693359 C-400.9802588 43.75919751 -394.66833032 42.75651153 -388.33203125 41.84765625 C-369.62839487 39.15797055 -351.01512247 36.14893176 -332.4375 32.6875 C-331.01062866 32.42484848 -331.01062866 32.42484848 -329.55493164 32.15689087 C-317.81938209 29.98805051 -306.19901764 27.48986068 -294.58984375 24.72265625 C-279.55791617 21.14747397 -264.44415993 18.19395433 -249.25537109 15.37304688 C-243.90408727 14.37758039 -238.55519197 13.36929593 -233.20589256 12.36323166 C-231.24197267 11.99434828 -229.27776341 11.6270066 -227.31355286 11.25967407 C-220.2188691 9.92818109 -213.13841008 8.54364957 -206.06671143 7.09521484 C-194.08911352 4.64362565 -182.11498749 2.63461879 -170 1 C-169.08993195 0.87493073 -168.17986389 0.74986145 -167.24221802 0.6210022 C-111.54616618 -7.01710266 -55.63721793 -9.0645399 0 0 Z M-86.01904297 13.16308594 C-131.20762915 13.82042325 -176.77950855 19.81816052 -220.96240234 29.15966797 C-233.08106779 31.71705867 -245.2198874 34.15839576 -257.375 36.53515625 C-258.13132092 36.68319513 -258.88764183 36.83123402 -259.66688156 36.98375893 C-266.72365982 38.36498512 -273.78082697 39.74419882 -280.83935547 41.11645508 C-284.75163965 41.87722663 -288.66308785 42.64218045 -292.57406616 43.40963554 C-294.03423286 43.69536355 -295.49469056 43.9796096 -296.95547485 44.26216316 C-305.16101059 45.84981241 -313.26968825 47.63770363 -321.3662405 49.71209908 C-327.15594705 51.18216132 -332.95963609 52.31775217 -338.84765625 53.30859375 C-340.4200985 53.57965187 -340.4200985 53.57965187 -342.02430725 53.85618591 C-345.3899214 54.43284027 -348.75719788 54.99877418 -352.125 55.5625 C-353.28602234 55.75853821 -354.44704468 55.95457642 -355.64324951 56.15655518 C-376.03333433 59.59060483 -396.44752141 62.51908006 -416.98760986 64.88537598 C-419.02579738 65.1207613 -421.0634887 65.36005018 -423.10107422 65.60058594 C-430.74895101 66.49942651 -438.39641923 67.39498721 -446.0625 68.125 C-447.06071777 68.22143799 -448.05893555 68.31787598 -449.08740234 68.41723633 C-459.52190199 69.29682971 -469.95247508 69.3111173 -480.41796875 69.31030273 C-483.52878785 69.31247644 -486.63924384 69.33065936 -489.75 69.34960938 C-508.9140747 69.40483616 -527.74841548 67.72328571 -546.6875 64.875 C-547.40074432 64.76895447 -548.11398865 64.66290894 -548.84884644 64.5536499 C-558.83115838 63.05869103 -568.74678368 61.3362928 -578.625 59.25 C-579.61902832 59.04213867 -580.61305664 58.83427734 -581.63720703 58.62011719 C-593.60251884 55.97646236 -605.23154768 52.43766665 -617.0625 49.125 C-617.0625 173.205 -617.0625 297.285 -617.0625 425.125 C-594.61149503 432.36725967 -573.70388642 438.77075717 -550.6875 442.3125 C-549.68557617 442.4676709 -548.68365234 442.6228418 -547.65136719 442.78271484 C-526.81463049 445.78040665 -505.96396644 446.50387547 -484.9375 446.4375 C-483.66915314 446.43501251 -482.40080627 446.43252502 -481.09402466 446.42996216 C-446.53289724 446.32569679 -413.17244024 442.93797409 -379.0078125 437.84375 C-378.13936203 437.71561417 -377.27091156 437.58747833 -376.37614441 437.45545959 C-361.9159163 435.26097526 -347.58100956 432.26104865 -333.2421875 429.39453125 C-331.45037326 429.03681469 -329.65855388 428.67912388 -327.86672974 428.32145691 C-324.12000147 427.57330079 -320.37342983 426.82436593 -316.62695312 426.07495117 C-312.87363656 425.32427179 -309.12005984 424.57491711 -305.36621094 423.8269043 C-299.84524654 422.72672551 -294.32473893 421.62428181 -288.8046875 420.51953125 C-287.4397091 420.24636487 -287.4397091 420.24636487 -286.04715538 419.96767998 C-273.75366099 417.50408974 -261.47920552 414.96133045 -249.21597481 412.35148621 C-234.68732061 409.26019023 -220.15732839 406.36303462 -205.5 403.9375 C-204.53774506 403.77546082 -203.57549011 403.61342163 -202.58407593 403.44647217 C-187.38978495 400.88864433 -172.16541047 398.63074129 -156.88256836 396.67114258 C-155.81378952 396.53388008 -155.81378952 396.53388008 -154.72341919 396.3938446 C-152.84118444 396.15389804 -150.95833858 395.91875814 -149.07543945 395.68408203 C-145.82071811 395.25807596 -142.59791878 394.69828483 -139.36499023 394.13110352 C-133.12858867 393.08183173 -126.91472932 392.47205043 -120.609375 392.01953125 C-119.44823181 391.93564651 -118.28708862 391.85176178 -117.09075928 391.76533508 C-103.83454615 390.87990354 -90.59361283 390.7753783 -77.3125 390.8125 C-76.05365997 390.81332581 -74.79481995 390.81415161 -73.49783325 390.81500244 C-30.36540226 390.87997689 -30.36540226 390.87997689 -10.42944336 395.60253906 C-7.62321862 396.22196361 -4.80779999 396.69837433 -1.97265625 397.16796875 C13.2610139 399.70245753 28.03571839 403.00208297 42.85986328 407.3347168 C47.17713266 408.44331595 51.56672655 409.25084531 55.9375 410.125 C55.9375 286.375 55.9375 162.625 55.9375 35.125 C8.82848705 19.42199568 -36.60051195 12.52648058 -86.01904297 13.16308594 Z " fill="#FBFBFB" transform="translate(821.0625,318.875)"/>
<path d="M0 0 C3.52857626 0.01160716 7.05685514 0.00465702 10.58542156 -0.00714493 C13.35395033 -0.01438856 16.12240877 -0.01206775 18.89093971 -0.00688934 C20.81626716 -0.00494005 22.74159753 -0.01092546 24.66691589 -0.01715088 C39.79892306 0.06413802 39.79892306 0.06413802 44.41186523 3.83496094 C46.02503558 7.47779289 46.25097744 11.13813256 46.67358398 15.07324219 C47.97725089 24.8372127 51.14759058 32.05887505 56.48608398 40.26074219 C57.07131836 41.1953125 57.65655273 42.12988281 58.25952148 43.09277344 C65.93477456 54.00235804 78.39015247 59.50838142 90.85107422 63.14648438 C95.61895665 64.60933806 97.86952063 66.01794343 100.48608398 70.26074219 C100.87157784 73.18504295 101.0272716 75.72881998 100.99401855 78.64892578 C101.00025852 79.49088186 101.00649848 80.33283794 101.01292753 81.20030785 C101.0288763 84.02021706 101.016246 86.83926413 101.00366211 89.65917969 C101.00908239 91.68134058 101.01620452 93.70349752 101.02490234 95.72564697 C101.04314972 101.21734535 101.03606222 106.7087434 101.023386 112.20044708 C101.01326573 117.94500036 101.02264898 123.68952776 101.02893066 129.43408203 C101.03620989 139.08142722 101.02661209 148.72864996 101.00756836 158.37597656 C100.98579916 169.5329005 100.99285033 180.68953205 101.01487398 191.8464489 C101.03302008 201.42194562 101.03559015 210.99735427 101.0251193 220.57286263 C101.01888006 226.29347654 101.01806068 232.01395299 101.03126526 237.73455811 C101.04281156 243.11250255 101.03482009 248.49006968 101.01168823 253.86797333 C101.00639465 255.84286624 101.00792597 257.81779086 101.01673889 259.7926712 C101.02765228 262.48639712 101.01398191 265.17891019 100.99401855 267.87255859 C101.00294144 268.65611914 101.01186433 269.43967968 101.02105761 270.24698448 C100.94970121 275.20281624 100.04766218 277.79277051 96.48608398 281.26074219 C94.1312451 282.43816163 92.84814992 282.33557678 90.23217773 282.25292969 C89.37688477 282.23617188 88.5215918 282.21941406 87.64038086 282.20214844 C85.85629939 282.15854041 84.07239607 282.10671725 82.28881836 282.04589844 C73.64940995 281.90416318 66.3304424 283.78525545 59.48608398 289.26074219 C57.25961239 291.44725147 55.34627575 293.75702462 53.48608398 296.26074219 C52.8015918 297.16179687 52.8015918 297.16179687 52.10327148 298.08105469 C48.27479514 303.92693175 47.43934011 310.05907331 46.64941406 316.87719727 C46.02964595 321.70020479 45.29882576 324.89770841 41.48608398 328.26074219 C36.96553174 329.33224392 32.73911725 329.29783142 28.11499023 329.10449219 C26.65521054 329.04963604 25.19541138 328.99529637 23.7355957 328.94140625 C22.59087799 328.89651062 22.59087799 328.89651062 21.42303467 328.85070801 C-14.39486979 327.49359953 -49.77718727 330.02128225 -85.26391602 334.76074219 C-86.03165344 334.86229614 -86.79939087 334.9638501 -87.59039307 335.06848145 C-96.0754065 336.20170604 -104.40943349 337.58695379 -112.76879883 339.45703125 C-117.12774726 340.39247181 -121.50098889 341.20117299 -125.88891602 341.98730469 C-126.7298027 342.13799911 -127.57068939 342.28869354 -128.4370575 342.44395447 C-130.20704739 342.76034652 -131.97712537 343.07624613 -133.74728394 343.39169312 C-149.85759842 346.26857941 -165.94669737 349.2513177 -182.01074219 352.37640381 C-183.93394478 352.75038648 -185.85743685 353.12288433 -187.78125 353.49371338 C-197.5336488 355.37622031 -207.22488325 357.38758888 -216.87329102 359.74902344 C-228.27825255 362.53099332 -239.77653803 364.67666097 -251.32641602 366.76074219 C-253.48388813 367.15412637 -255.64135882 367.54751839 -257.79882812 367.94091797 C-272.55075934 370.61590934 -287.32567704 373.04605507 -302.15063477 375.27636719 C-307.09570281 376.02468594 -311.98693331 376.89625855 -316.88891602 377.88574219 C-346.74182025 383.64797125 -377.39241459 384.44083449 -407.70141602 384.44824219 C-408.79349365 384.4492392 -409.88557129 384.45023621 -411.01074219 384.45126343 C-440.9222873 384.44816758 -440.9222873 384.44816758 -446.64282227 381.82714844 C-449.49230712 377.91877359 -449.80809989 373.91685292 -450.45141602 369.19824219 C-451.82749217 360.85033044 -453.56046847 354.26161471 -458.51391602 347.26074219 C-459.19711914 346.23464844 -459.88032227 345.20855469 -460.58422852 344.15136719 C-465.15126489 337.62702952 -469.48158955 332.99631401 -476.51391602 329.26074219 C-477.45364258 328.75027344 -478.39336914 328.23980469 -479.36157227 327.71386719 C-485.12025446 324.71192189 -490.80072293 322.31795648 -497.04125977 320.51074219 C-500.42832853 318.79847994 -502.60599773 316.49222564 -504.51391602 313.26074219 C-504.99547801 310.2568275 -505.18798929 307.82852606 -505.1421051 304.83496094 C-505.14919949 304.0010231 -505.15629388 303.16708527 -505.16360325 302.30787659 C-505.18116833 299.52085922 -505.16308642 296.73523924 -505.14501953 293.94824219 C-505.15015892 291.94725917 -505.15744034 289.94628068 -505.16670227 287.9453125 C-505.18522185 282.51551562 -505.17227394 277.08620958 -505.15261197 271.65643311 C-505.13622891 265.97374905 -505.1450379 260.29109616 -505.15013123 254.60839844 C-505.15465255 245.06534992 -505.1387798 235.52249738 -505.11083984 225.97949219 C-505.07878788 214.9469578 -505.07880363 203.91477689 -505.09605461 192.88221741 C-505.11191913 182.26860116 -505.10518658 171.65511449 -505.0881176 161.04150391 C-505.08124556 156.52486725 -505.08228117 152.00833442 -505.08966255 147.49169922 C-505.09732441 142.1728167 -505.08520218 136.85433639 -505.05781364 131.53552246 C-505.05092774 129.58363031 -505.05083403 127.63170061 -505.05802917 125.67980957 C-505.06672051 123.0149322 -505.05077352 120.35129698 -505.02857971 117.68652344 C-505.03682048 116.91433975 -505.04506125 116.14215607 -505.05355173 115.34657288 C-504.97452116 110.20415585 -503.86973277 107.1615642 -500.51391602 103.26074219 C-496.52524571 102.20713116 -493.16204742 102.24249524 -489.04516602 102.35839844 C-479.37516342 102.58442492 -469.46611884 102.10494484 -461.98657227 95.06152344 C-455.52333356 87.15819972 -451.23705203 79.11193323 -450.29516602 68.88574219 C-449.51909249 60.45980101 -449.51909249 60.45980101 -446.51391602 57.26074219 C-439.57930602 54.86529728 -433.20564003 55.21747118 -425.95141602 55.63574219 C-423.60645058 55.74695944 -421.26139772 55.85634902 -418.91625977 55.96386719 C-417.79977051 56.01736328 -416.68328125 56.07085937 -415.53295898 56.12597656 C-409.52168313 56.39431105 -403.52943188 56.40213838 -397.51391602 56.26074219 C-396.2188916 56.23391357 -396.2188916 56.23391357 -394.89770508 56.20654297 C-371.15897073 55.66032083 -347.55158134 53.44195309 -323.98565674 50.62124634 C-322.12830637 50.39940494 -320.27010794 50.18469721 -318.41186523 49.97045898 C-309.34879062 48.8380335 -300.45927976 47.10885566 -291.51417542 45.28250122 C-283.7247865 43.69308388 -275.92326742 42.19448714 -268.10375977 40.76074219 C-266.98228546 40.55472382 -265.86081116 40.34870544 -264.70535278 40.13644409 C-260.14488198 39.30016675 -255.58382235 38.46714733 -251.02246094 37.63574219 C-231.82153165 34.13147335 -212.6679225 30.45161419 -193.6652832 25.98095703 C-186.68346862 24.38533005 -179.65992343 22.98438798 -172.63891602 21.57324219 C-171.7973999 21.40354919 -170.95588379 21.2338562 -170.08886719 21.059021 C-153.0858592 17.64453453 -136.01101164 14.69958389 -118.90112305 11.87524414 C-117.93397369 11.7146904 -116.96682434 11.55413666 -115.97036743 11.38871765 C-114.1689416 11.09027312 -112.36703343 10.79471811 -110.56454468 10.50276184 C-106.81182317 9.88174151 -103.12723119 9.19802561 -99.44677734 8.23291016 C-95.30860552 7.15797587 -91.17085974 6.56706547 -86.93188477 6.04199219 C-86.11939774 5.93858521 -85.30691071 5.83517822 -84.46980286 5.7286377 C-82.74808387 5.51110943 -81.0260442 5.29610593 -79.30371094 5.08349609 C-76.77299936 4.76962043 -74.24408902 4.44354311 -71.71508789 4.11621094 C-47.83585665 1.08745784 -24.04924984 -0.07971874 0 0 Z M-117.24658203 30.50585938 C-123.31262054 31.90735314 -129.46017312 32.90073212 -135.59274292 33.96444702 C-151.58770366 36.74764317 -167.52985563 39.77341513 -183.45141602 42.94824219 C-184.39146484 43.13429016 -185.33151367 43.32033813 -186.30004883 43.51202393 C-195.12872252 45.26223649 -203.92650307 47.04532322 -212.64282227 49.29589844 C-221.52650487 51.58739708 -230.50015085 53.31551476 -239.51391602 55.01074219 C-240.39467804 55.17793762 -241.27544006 55.34513306 -242.18289185 55.51739502 C-262.46660537 59.3618713 -282.82844168 62.73517839 -303.20433044 66.05029297 C-307.59049124 66.7668098 -311.96266474 67.51799853 -316.32641602 68.36230469 C-323.6858463 69.7258929 -331.13847965 70.46496411 -338.57641602 71.26074219 C-339.78651337 71.39047424 -339.78651337 71.39047424 -341.02105713 71.52282715 C-371.21735907 74.72599203 -401.15892153 75.57760017 -431.51391602 75.26074219 C-432.10052002 76.99275879 -432.10052002 76.99275879 -432.69897461 78.75976562 C-433.22809125 80.29666761 -433.75757016 81.8334449 -434.28735352 83.37011719 C-434.67105103 84.50779541 -434.67105103 84.50779541 -435.0625 85.66845703 C-437.33614688 92.22419779 -440.35537371 97.67804156 -444.51391602 103.26074219 C-445.11075195 104.08960938 -445.70758789 104.91847656 -446.32250977 105.77246094 C-448.88501364 108.68211329 -451.70570231 110.75860266 -454.95141602 112.82324219 C-455.5646875 113.21382813 -456.17795898 113.60441406 -456.80981445 114.00683594 C-466.02579473 119.64328975 -474.77855068 121.18720565 -485.51391602 122.26074219 C-485.51391602 182.32074219 -485.51391602 242.38074219 -485.51391602 304.26074219 C-481.55391602 305.91074219 -477.59391602 307.56074219 -473.51391602 309.26074219 C-467.02498899 312.01362032 -462.70824626 315.54482152 -457.61547852 320.43261719 C-455.72665901 322.47951472 -455.72665901 322.47951472 -453.51391602 322.26074219 C-453.51391602 322.92074219 -453.51391602 323.58074219 -453.51391602 324.26074219 C-452.68891602 324.85886719 -451.86391602 325.45699219 -451.01391602 326.07324219 C-441.21365695 334.00128195 -435.59149147 349.2640201 -432.47485352 361.14355469 C-432.15774414 362.17222656 -431.84063477 363.20089844 -431.51391602 364.26074219 C-429.15521637 365.44009201 -427.71565081 365.3997177 -425.0847168 365.421875 C-424.15860092 365.43133652 -423.23248505 365.44079803 -422.27830505 365.45054626 C-420.75911217 365.45714012 -420.75911217 365.45714012 -419.20922852 365.46386719 C-418.15570694 365.4708815 -417.10218536 365.47789581 -416.01673889 365.48512268 C-412.5574221 365.50281768 -409.09827665 365.50899274 -405.63891602 365.51074219 C-404.45778229 365.51141693 -403.27664856 365.51209167 -402.0597229 365.51278687 C-381.71638445 365.49433071 -361.71647409 364.58516717 -341.51391602 362.26074219 C-340.71876587 362.17117249 -339.92361572 362.08160278 -339.10437012 361.98931885 C-320.88662269 359.93621896 -302.80344994 357.61322578 -284.86547852 353.77636719 C-275.38220686 351.77077395 -265.83642338 350.09120857 -256.300354 348.35830688 C-234.76151475 344.45030894 -234.76151475 344.45030894 -213.26391602 340.32324219 C-212.30291992 340.13632812 -211.34192383 339.94941406 -210.35180664 339.75683594 C-209.49264648 339.58410156 -208.63348633 339.41136719 -207.74829102 339.23339844 C-207.03898437 339.09168213 -206.32967773 338.94996582 -205.59887695 338.80395508 C-203.44186199 338.29377731 -203.44186199 338.29377731 -201.20466614 337.29814148 C-198.58181187 336.28691894 -196.13102831 335.66317661 -193.37695312 335.11914062 C-191.86820618 334.81777191 -191.86820618 334.81777191 -190.32897949 334.51031494 C-188.70155823 334.19341705 -188.70155823 334.19341705 -187.04125977 333.87011719 C-185.90192993 333.64483337 -184.7626001 333.41954956 -183.58874512 333.18743896 C-179.87741335 332.45607609 -176.1645519 331.7328856 -172.45141602 331.01074219 C-171.19104523 330.76396729 -169.93067444 330.51719238 -168.6321106 330.26293945 C-151.72588905 326.95534377 -134.80814844 323.79519413 -117.79296875 321.09960938 C-111.49205058 320.09977604 -105.23484454 319.02537703 -98.98657227 317.73339844 C-91.53099847 316.21280578 -84.06222271 315.14033633 -76.51391602 314.19824219 C-75.51328125 314.07175797 -75.51328125 314.07175797 -74.49243164 313.94271851 C-62.19148278 312.39141027 -49.88582795 311.09340158 -37.51391602 310.26074219 C-36.25973877 310.17397217 -36.25973877 310.17397217 -34.98022461 310.08544922 C-14.20155869 308.72707668 6.67496057 309.16612632 27.48608398 309.26074219 C28.07377563 307.52763794 28.07377563 307.52763794 28.67333984 305.75952148 C29.20303609 304.22205319 29.7330841 302.68470605 30.26342773 301.14746094 C30.51974976 300.38848511 30.77607178 299.62950928 31.04016113 298.84753418 C33.30174123 292.3298958 36.3906111 286.82237481 40.48608398 281.26074219 C41.22858398 280.18824219 41.97108398 279.11574219 42.73608398 278.01074219 C53.77300369 266.97382248 66.28609462 264.28740744 81.48608398 262.26074219 C81.48608398 202.20074219 81.48608398 142.14074219 81.48608398 80.26074219 C77.52608398 78.61074219 73.56608398 76.96074219 69.48608398 75.26074219 C53.18253607 67.88532765 40.4140038 54.7434006 33.48608398 38.26074219 C31.90952708 33.97178047 30.64711381 29.67626494 29.48608398 25.26074219 C28.8265718 23.25837156 28.16078358 21.2580466 27.48608398 19.26074219 C-20.73432843 18.74397773 -70.06641884 18.94418887 -117.24658203 30.50585938 Z " fill="#FBFBFB" transform="translate(742.513916015625,356.7392578125)"/>
<path d="M0 0 C0 0.66 0 1.32 0 2 C0.66 2.20625 1.32 2.4125 2 2.625 C18.72225525 10.28936699 30.36575202 28.00096378 37.08007812 44.51806641 C49.49334768 78.00885684 46.32125044 111.02455784 31.82836914 143.42041016 C28.33137282 150.78461686 23.80456784 157.43663286 19 164 C18.56671387 164.59554687 18.13342773 165.19109375 17.68701172 165.8046875 C-4.68843467 196.22533149 -38.29889754 219.76723376 -75.97460938 226.22412109 C-103.02628782 230.03862889 -127.32906018 226.42393501 -150 211 C-150.94230469 210.36964844 -151.88460937 209.73929688 -152.85546875 209.08984375 C-159.18726003 204.69689063 -164.19485174 200.00882357 -169 194 C-169.74121094 193.11699219 -170.48242188 192.23398437 -171.24609375 191.32421875 C-180.60477205 179.6613802 -185.41032806 166.39494708 -189 152 C-189.21398437 151.20335937 -189.42796875 150.40671875 -189.6484375 149.5859375 C-196.57704563 121.9719196 -189.32004003 87.77374289 -175 63.4375 C-174.01508555 61.94824598 -173.01457522 60.46920766 -172 59 C-171.41863281 58.07703125 -170.83726562 57.1540625 -170.23828125 56.203125 C-148.20687853 21.7036465 -113.43343537 -2.80383481 -73.5625 -11.875 C-48.33542805 -16.12164137 -22.13420595 -13.20636257 0 0 Z M-142.55175781 49.8449707 C-162.98904682 73.07967144 -174.82547904 103.93981225 -173 135 C-170.81101746 157.59833665 -160.8932356 177.92430852 -143.6875 192.75 C-125.57159277 207.03611878 -104.29831558 209.34275571 -82 208 C-76.46419445 207.295522 -71.29689107 205.74666548 -66 204 C-64.69480677 203.60801561 -63.38879984 203.21873137 -62.08203125 202.83203125 C-54.16329789 200.42275441 -47.0567829 197.31685881 -40 193 C-38.91203125 192.35289062 -37.8240625 191.70578125 -36.703125 191.0390625 C-13.10876235 176.68590794 4.78300619 156.15977523 16 131 C16.32129883 130.28827637 16.64259766 129.57655273 16.97363281 128.84326172 C26.92442629 106.4064726 29.30775376 81.24026481 21.93359375 57.578125 C20.75283845 54.63208206 19.43790142 51.82891474 18 49 C17.484375 47.92234375 16.96875 46.8446875 16.4375 45.734375 C7.8875884 28.71371765 -6.5203084 15.82141279 -24.66015625 9.78125 C-69.05052178 -3.28846856 -112.59228308 16.94838713 -142.55175781 49.8449707 Z " fill="#FAFAFA" transform="translate(614,442)"/>
<path d="M0 0 C4.84730736 3.7060998 8.39504174 9.12262522 10.3125 14.875 C11.05404039 24.90402988 10.90715246 33.89888188 4.55859375 42.15625 C3.36968193 43.52635298 2.15208534 44.87246424 0.8984375 46.18359375 C-0.88417357 47.99182937 -0.88417357 47.99182937 -2.6875 50.875 C-3.3475 50.875 -4.0075 50.875 -4.6875 50.875 C-0.52394068 62.84102614 -0.52394068 62.84102614 5.4296875 73.98046875 C6.57917861 76.44729701 6.61973833 78.1834191 6.3125 80.875 C3.83802136 83.75074545 1.4682398 85.77117347 -1.6875 87.875 C-5.45833425 87.79302534 -7.22868994 87.2632239 -10.125 84.8125 C-13.10142186 81.40050421 -14.89998213 78.00821492 -16.8125 73.9375 C-17.14636719 73.24720703 -17.48023438 72.55691406 -17.82421875 71.84570312 C-18.45156485 70.54795776 -19.07472869 69.24817419 -19.69189453 67.94555664 C-20.9927244 65.24022605 -22.34504166 62.55991668 -23.6875 59.875 C-31.1125 60.865 -31.1125 60.865 -38.6875 61.875 C-38.65269531 63.67066406 -38.61789062 65.46632813 -38.58203125 67.31640625 C-38.55388475 69.69009478 -38.52658551 72.06379347 -38.5 74.4375 C-38.47486328 75.61892578 -38.44972656 76.80035156 -38.42382812 78.01757812 C-38.37013879 84.40660918 -38.44652803 89.28848353 -41.6875 94.875 C-44.26900979 97.08772268 -45.68890034 96.87497454 -49.125 96.8125 C-53.6055614 95.63340489 -54.93320766 94.61404143 -57.6875 90.875 C-58.47268778 87.05660496 -58.46741266 83.27933239 -58.484375 79.390625 C-58.50796082 78.2479718 -58.53154663 77.1053186 -58.55584717 75.92803955 C-58.62458725 72.24360854 -58.65742384 68.55993171 -58.6875 64.875 C-58.72337647 62.44854917 -58.76047941 60.02211615 -58.79882812 57.59570312 C-58.88387438 51.50276078 -58.91797697 45.41087937 -58.92773438 39.31738281 C-58.9376779 35.55773645 -58.96896962 31.79858715 -59 28.0390625 C-59.00651185 25.62500316 -59.01176939 23.21094004 -59.015625 20.796875 C-59.0279718 19.68447449 -59.0403186 18.57207397 -59.05303955 17.42596436 C-59.03696001 11.87096876 -58.9908467 7.59102572 -55.6875 2.875 C-52.30676014 0.62117342 -49.33311948 0.05823657 -45.421875 -0.6328125 C-44.35444061 -0.82833206 -44.35444061 -0.82833206 -43.26544189 -1.02780151 C-41.75977575 -1.30175191 -40.25346628 -1.57218653 -38.74658203 -1.83935547 C-36.45805485 -2.24634455 -34.17240509 -2.66722602 -31.88671875 -3.08984375 C-30.41942277 -3.35500879 -28.95197902 -3.61935772 -27.484375 -3.8828125 C-26.80808044 -4.00778107 -26.13178589 -4.13274963 -25.43499756 -4.26150513 C-16.02040086 -5.90669096 -8.11782862 -5.17892378 0 0 Z M-29.6875 15.8125 C-34.1425 16.8334375 -34.1425 16.8334375 -38.6875 17.875 C-38.6875 26.125 -38.6875 34.375 -38.6875 42.875 C-24.26659853 41.00332147 -24.26659853 41.00332147 -12.3125 33.4375 C-9.17906841 28.49631942 -8.14980738 24.78961882 -8.6875 18.875 C-9.52083333 16.375 -9.52083333 16.375 -11.6875 14.875 C-18.16519632 13.53752922 -23.31212669 14.30080778 -29.6875 15.8125 Z " fill="#F9F9F9" transform="translate(535.6875,511.125)"/>
<path d="M0 0 C7.08510266 6.41695939 10.4538198 13.50355329 11.0546875 23.0390625 C10.85554268 33.82133181 6.62285997 42.11059362 -0.73046875 49.8125 C-7.59300044 56.09399353 -15.23841174 58.6188223 -24.25 60.25 C-25.13429688 60.42273438 -26.01859375 60.59546875 -26.9296875 60.7734375 C-30.73788566 61.49826071 -34.10031102 62 -38 62 C-37.96072388 63.32390747 -37.96072388 63.32390747 -37.9206543 64.67456055 C-37.83519725 67.9641158 -37.77264255 71.25248422 -37.7253418 74.54272461 C-37.70026853 75.96381291 -37.66620001 77.38477313 -37.62280273 78.80541992 C-37.56182142 80.85367462 -37.53372238 82.90021883 -37.51171875 84.94921875 C-37.48553467 86.17987061 -37.45935059 87.41052246 -37.43237305 88.6784668 C-38.15550302 92.9099435 -39.7034676 94.34866237 -43 97 C-45.28125 97.6640625 -45.28125 97.6640625 -47.5 97.625 C-48.59828125 97.64433594 -48.59828125 97.64433594 -49.71875 97.6640625 C-53.24825619 96.63663775 -54.70959771 94.84446673 -57 92 C-57.48983047 89.04119502 -57.67599463 86.66141626 -57.63110352 83.70898438 C-57.63825882 82.88723221 -57.64541412 82.06548004 -57.65278625 81.21882629 C-57.66965733 78.50989728 -57.65028091 75.80262696 -57.62890625 73.09375 C-57.6297351 71.20715193 -57.63219508 69.32055393 -57.63621521 67.43395996 C-57.63907212 63.48293278 -57.62438254 59.53247282 -57.59692383 55.58154297 C-57.56284121 50.52052926 -57.56886026 45.46052972 -57.5875864 40.39946747 C-57.5981619 36.50461394 -57.58921358 32.60999583 -57.57420158 28.71516418 C-57.56902335 26.84927571 -57.56949723 24.98336261 -57.57574654 23.11747742 C-57.58120542 20.50812024 -57.56080306 17.90020808 -57.53344727 15.29101562 C-57.53997314 14.52203445 -57.54649902 13.75305328 -57.55322266 12.96076965 C-57.48862396 9.33166255 -57.10831366 7.17514479 -55.18345642 4.06262207 C-52.27504029 1.31516018 -49.3088513 0.59762642 -45.5 -0.1875 C-44.42878906 -0.42774902 -44.42878906 -0.42774902 -43.3359375 -0.67285156 C-41.22783246 -1.13659689 -39.11533405 -1.57064492 -37 -2 C-35.9584375 -2.22816406 -34.916875 -2.45632813 -33.84375 -2.69140625 C-23.29213744 -4.76404443 -9.20299936 -6.77416654 0 0 Z M-38 18 C-38 26.25 -38 34.5 -38 43 C-24.11141426 41.52685147 -24.11141426 41.52685147 -12.5 34.5 C-9.2933582 29.155597 -8.1135786 25.27402161 -9 19 C-10.25 16.25 -10.25 16.25 -13 15 C-21.41220894 14.01857562 -29.78604486 16.34340401 -38 18 Z " fill="#FBFBFB" transform="translate(605,496)"/>
<path d="M0 0 C5.28 0 10.56 0 16 0 C16.33 0.66 16.66 1.32 17 2 C14.93831015 2.19620767 12.87559002 2.38160753 10.8125 2.5625 C9.66394531 2.66691406 8.51539063 2.77132813 7.33203125 2.87890625 C4.31368801 2.98859985 1.91076064 2.74002389 -1 2 C-0.67 1.34 -0.34 0.68 0 0 Z " fill="#ECECEC" transform="translate(718,330)"/>
<path d="M0 0 C1.98 0 3.96 0 6 0 C6 0.99 6 1.98 6 3 C4.54263913 3.19491452 3.08405407 3.38069358 1.625 3.5625 C0.81289063 3.66691406 0.00078125 3.77132813 -0.8359375 3.87890625 C-3 4 -3 4 -5 3 C-5 2.34 -5 1.68 -5 1 C-2.525 1.495 -2.525 1.495 0 2 C0 1.34 0 0.68 0 0 Z " fill="#EFEFEF" transform="translate(585,508)"/>
<path d="M0 0 C0.99 0 1.98 0 3 0 C3 0.99 3 1.98 3 3 C-0.96 3.66 -4.92 4.32 -9 5 C-9 4.34 -9 3.68 -9 3 C-3.375 0.875 -3.375 0.875 0 2 C0 1.34 0 0.68 0 0 Z " fill="#E3E3E3" transform="translate(591,391)"/>
<path d="M0 0 C-0.33 0.99 -0.66 1.98 -1 3 C-2.98 3.33 -4.96 3.66 -7 4 C-7.33 3.01 -7.66 2.02 -8 1 C-5.10765685 0.17361624 -3.11257569 0 0 0 Z " fill="#E5E5E5" transform="translate(548,753)"/>
<path d="M0 0 C2.97 0.495 2.97 0.495 6 1 C6 1.66 6 2.32 6 3 C6.99 3.33 7.98 3.66 9 4 C8.01 4.495 8.01 4.495 7 5 C4.64018187 4.06421005 2.30368736 3.06652192 0 2 C0 1.34 0 0.68 0 0 Z " fill="#C5C5C5" transform="translate(861,347)"/>
<path d="M0 0 C0 0.66 0 1.32 0 2 C-2.64 2.33 -5.28 2.66 -8 3 C-8.33 2.34 -8.66 1.68 -9 1 C-3.375 -1.125 -3.375 -1.125 0 0 Z " fill="#D0D0D0" transform="translate(652,338)"/>
<path d="M0 0 C2.31 0.33 4.62 0.66 7 1 C6.67 1.66 6.34 2.32 6 3 C4.35 3 2.7 3 1 3 C0.67 2.01 0.34 1.02 0 0 Z " fill="#D8D8D8" transform="translate(702,331)"/>
</svg>
